{"title":"Seven.Pounds.2008.SWESUB.x264.AAC.mp4-Zen_Bud","uid":5658494,"size":886091738,"categoryP":"video","categoryS":"movies","magnet":"?xt=urn:btih:5af4a686dbbccad0c065675417cb1aadcb2a0cfa&amp;dn=Seven.Pounds.2008.SWESUB.x264.AAC.mp4-Zen_Bud&amp;tr=udp%3A%2F%2Ftracker.openbittorrent.com%3A80&amp;tr=udp%3A%2F%2Fopen.demonii.com%3A1337&amp;tr=udp%3A%2F%2Ftracker.coppersurfer.tk%3A6969&amp;tr=udp%3A%2F%2Fexodus.desync.com%3A6969","seeders":2,"leechers":0,"uploader":"Zen_Bud","files":-1,"time":1277885621,"description":"General\n\nComplete name                    : Seven Pounds.m4v\nFormat                           : MPEG-4\nCodec ID                         : mp42\nFile size                        : 845 MiB\nDuration                         : 2h 3mn\nOverall bit rate                 : 960 Kbps\nWriting application              : HandBrake \n\nVideo\n\nFormat                           : AVC\nDuration                         : 2h 3mn\nBit rate                         : 796 Kbps\nWidth                            : 720 pixels\nHeight                           : 488 pixels\nDisplay aspect ratio             : 2.098\nStream size                      : 700 MiB (83%)\nWriting library                  : x264 core 79\n\nAudio\n\nFormat                           : AAC\nDuration                         : 2h 3mn\nMaximum bit rate                 : 195 Kbps\nChannel(s)                       : 2 channels\nChannel positions                : Front: L R\nSampling rate                    : 48.0 KHz\nStream size                      : 141 MiB (17%)\nLanguage                         : English\n\n\n\n","torrent":{"xt":"urn:btih:5af4a686dbbccad0c065675417cb1aadcb2a0cfa","amp;dn":"Seven.Pounds.2008.SWESUB.x264.AAC.mp4-Zen_Bud","amp;tr":["udp%3A%2F%2Ftracker.openbittorrent.com%3A80","udp%3A%2F%2Fopen.demonii.com%3A1337","udp%3A%2F%2Ftracker.coppersurfer.tk%3A6969","udp%3A%2F%2Fexodus.desync.com%3A6969"],"infoHash":"5af4a686dbbccad0c065675417cb1aadcb2a0cfa","infoHashBuffer":{"type":"Buffer","data":[90,244,166,134,219,188,202,208,192,101,103,84,23,203,26,173,203,42,12,250]},"announce":[],"urlList":[]}}